<svg viewBox="0 0 512 512" width="512" height="512" xmlns="http://www.w3.org/2000/svg" role="img" aria-label="HOLY OLY — disco 25 kg"><defs><radialGradient id="bandreadme" cx="40%" cy="33%" r="80%"><stop offset="0" stop-color="#f0726f"/><stop offset="50%" stop-color="#d8262d"/><stop offset="100%" stop-color="#9f1219"/></radialGradient><linearGradient id="rimreadme" x1="0" y1="1" x2="1" y2="0"><stop offset="0" stop-color="#680a10"/><stop offset="55%" stop-color="#9f1219"/><stop offset="100%" stop-color="#d8262d"/></linearGradient><radialGradient id="steelreadme" cx="38%" cy="32%" r="84%"><stop offset="0" stop-color="#ffffff"/><stop offset="45%" stop-color="#dadde0"/><stop offset="100%" stop-color="#9da1a6"/></radialGradient><radialGradient id="borereadme" cx="42%" cy="36%" r="80%"><stop offset="0" stop-color="#8c9096"/><stop offset="100%" stop-color="#303236"/></radialGradient><radialGradient id="bgreadme" cx="50%" cy="40%" r="78%"><stop offset="0" stop-color="#2c2f34"/><stop offset="58%" stop-color="#191b1e"/><stop offset="100%" stop-color="#0c0d0f"/></radialGradient><radialGradient id="glowreadme" cx="50%" cy="46%" r="50%"><stop offset="0" stop-color="#d8262d" stop-opacity=".34"/><stop offset="100%" stop-color="#d8262d" stop-opacity="0"/></radialGradient></defs><rect width="512" height="512" fill="url(#bgreadme)"/><ellipse cx="250" cy="270" rx="220" ry="206" fill="url(#glowreadme)"/><ellipse cx="246" cy="464" rx="176" ry="30" fill="rgba(0,0,0,.5)"/><g transform="translate(-34 7)"><g transform="translate(256 268) rotate(-5) scale(0.82 0.985) translate(-256 -268)"><circle cx="256" cy="268" r="192" fill="url(#rimreadme)"/></g></g><g transform="translate(-35 7)"><g transform="translate(256 268) rotate(-5) scale(0.82 0.985) translate(-256 -268)"><circle cx="256" cy="268" r="192" fill="none" stroke="rgba(255,255,255,.14)" stroke-width="3"/></g></g><g transform="translate(256 268) rotate(-5) scale(0.82 0.985) translate(-256 -268)"><circle cx="256" cy="268" r="192" fill="none" stroke="rgba(0,0,0,.22)" stroke-width="2"/><circle cx="256" cy="268" r="192" fill="#9f1219"/><circle cx="256" cy="268" r="186" fill="url(#bandreadme)"/><circle cx="256" cy="268" r="186" fill="none" stroke="rgba(255,255,255,.12)" stroke-width="3"/><circle cx="256" cy="268" r="100" fill="none" stroke="rgba(0,0,0,.18)" stroke-width="3"/><circle cx="256" cy="268" r="96" fill="url(#steelreadme)" stroke="rgba(0,0,0,.16)" stroke-width="1.5"/><circle cx="256" cy="268" r="88" fill="none" stroke="rgba(0,0,0,.10)" stroke-width="1.5"/><circle cx="256" cy="268" r="30" fill="url(#borereadme)"/><circle cx="256" cy="268" r="30" fill="none" stroke="rgba(255,255,255,.3)" stroke-width="2"/><path id="topreadme" d="M160.98 201.47 A116 116 0 0 1 351.02 201.47" fill="none"/><path id="botreadme" d="M155.31 392.34 A160 160 0 0 0 356.69 392.34" fill="none"/><text font-family="'Saira Condensed',Impact,sans-serif" fill="#ffffff" font-size="66" font-weight="800" letter-spacing="1"><textPath href="#topreadme" startOffset="50%" text-anchor="middle">HOLY</textPath></text><text font-family="'Saira Condensed',Impact,sans-serif" fill="#ffffff" font-size="66" font-weight="800" letter-spacing="8"><textPath href="#botreadme" startOffset="50%" text-anchor="middle">OLY</textPath></text></g></svg>